<mxfile host="65bd71144e">
    <diagram id="IRtDq71ep0YyCQ1NyiBq" name="Page-1">
        <mxGraphModel dx="881" dy="1997" grid="1" gridSize="10" guides="1" tooltips="1" connect="1" arrows="1" fold="1" page="1" pageScale="1" pageWidth="827" pageHeight="1169" math="0" shadow="0">
            <root>
                <mxCell id="0"/>
                <mxCell id="1" parent="0"/>
                <mxCell id="23" style="edgeStyle=none;html=1;entryX=0;entryY=0.5;entryDx=0;entryDy=0;" edge="1" parent="1" source="3" target="26">
                    <mxGeometry relative="1" as="geometry">
                        <mxPoint x="423" y="300" as="targetPoint"/>
                    </mxGeometry>
                </mxCell>
                <mxCell id="3" value="API Gateway&lt;br&gt;Load Balancers" style="whiteSpace=wrap;html=1;aspect=fixed;" vertex="1" parent="1">
                    <mxGeometry x="270" y="257" width="86" height="86" as="geometry"/>
                </mxCell>
                <mxCell id="19" style="edgeStyle=none;html=1;entryX=0;entryY=0.5;entryDx=0;entryDy=0;" edge="1" parent="1" source="4" target="7">
                    <mxGeometry relative="1" as="geometry"/>
                </mxCell>
                <mxCell id="4" value="Client" style="ellipse;whiteSpace=wrap;html=1;aspect=fixed;" vertex="1" parent="1">
                    <mxGeometry x="30" y="260" width="80" height="80" as="geometry"/>
                </mxCell>
                <mxCell id="6" value="DNS-Server" style="shape=table;startSize=30;container=1;collapsible=0;childLayout=tableLayout;fontStyle=1;align=center;" vertex="1" parent="1">
                    <mxGeometry x="150" y="260" width="80" height="91" as="geometry"/>
                </mxCell>
                <mxCell id="7" value="" style="shape=tableRow;horizontal=0;startSize=0;swimlaneHead=0;swimlaneBody=0;top=0;left=0;bottom=0;right=0;collapsible=0;dropTarget=0;fillColor=none;points=[[0,0.5],[1,0.5]];portConstraint=eastwest;" vertex="1" parent="6">
                    <mxGeometry y="30" width="80" height="20" as="geometry"/>
                </mxCell>
                <mxCell id="8" value="" style="shape=partialRectangle;html=1;whiteSpace=wrap;connectable=0;fillColor=none;top=0;left=0;bottom=0;right=0;overflow=hidden;" vertex="1" parent="7">
                    <mxGeometry width="34" height="20" as="geometry">
                        <mxRectangle width="34" height="20" as="alternateBounds"/>
                    </mxGeometry>
                </mxCell>
                <mxCell id="9" value="" style="shape=partialRectangle;html=1;whiteSpace=wrap;connectable=0;fillColor=none;top=0;left=0;bottom=0;right=0;overflow=hidden;" vertex="1" parent="7">
                    <mxGeometry x="34" width="20" height="20" as="geometry">
                        <mxRectangle width="20" height="20" as="alternateBounds"/>
                    </mxGeometry>
                </mxCell>
                <mxCell id="10" value="" style="shape=partialRectangle;html=1;whiteSpace=wrap;connectable=0;fillColor=none;top=0;left=0;bottom=0;right=0;overflow=hidden;" vertex="1" parent="7">
                    <mxGeometry x="54" width="26" height="20" as="geometry">
                        <mxRectangle width="26" height="20" as="alternateBounds"/>
                    </mxGeometry>
                </mxCell>
                <mxCell id="11" value="" style="shape=tableRow;horizontal=0;startSize=0;swimlaneHead=0;swimlaneBody=0;top=0;left=0;bottom=0;right=0;collapsible=0;dropTarget=0;fillColor=none;points=[[0,0.5],[1,0.5]];portConstraint=eastwest;" vertex="1" parent="6">
                    <mxGeometry y="50" width="80" height="20" as="geometry"/>
                </mxCell>
                <mxCell id="12" value="" style="shape=partialRectangle;html=1;whiteSpace=wrap;connectable=0;fillColor=none;top=0;left=0;bottom=0;right=0;overflow=hidden;" vertex="1" parent="11">
                    <mxGeometry width="34" height="20" as="geometry">
                        <mxRectangle width="34" height="20" as="alternateBounds"/>
                    </mxGeometry>
                </mxCell>
                <mxCell id="13" value="" style="shape=partialRectangle;html=1;whiteSpace=wrap;connectable=0;fillColor=none;top=0;left=0;bottom=0;right=0;overflow=hidden;" vertex="1" parent="11">
                    <mxGeometry x="34" width="20" height="20" as="geometry">
                        <mxRectangle width="20" height="20" as="alternateBounds"/>
                    </mxGeometry>
                </mxCell>
                <mxCell id="14" value="" style="shape=partialRectangle;html=1;whiteSpace=wrap;connectable=0;fillColor=none;top=0;left=0;bottom=0;right=0;overflow=hidden;" vertex="1" parent="11">
                    <mxGeometry x="54" width="26" height="20" as="geometry">
                        <mxRectangle width="26" height="20" as="alternateBounds"/>
                    </mxGeometry>
                </mxCell>
                <mxCell id="15" value="" style="shape=tableRow;horizontal=0;startSize=0;swimlaneHead=0;swimlaneBody=0;top=0;left=0;bottom=0;right=0;collapsible=0;dropTarget=0;fillColor=none;points=[[0,0.5],[1,0.5]];portConstraint=eastwest;" vertex="1" parent="6">
                    <mxGeometry y="70" width="80" height="21" as="geometry"/>
                </mxCell>
                <mxCell id="16" value="" style="shape=partialRectangle;html=1;whiteSpace=wrap;connectable=0;fillColor=none;top=0;left=0;bottom=0;right=0;overflow=hidden;" vertex="1" parent="15">
                    <mxGeometry width="34" height="21" as="geometry">
                        <mxRectangle width="34" height="21" as="alternateBounds"/>
                    </mxGeometry>
                </mxCell>
                <mxCell id="17" value="" style="shape=partialRectangle;html=1;whiteSpace=wrap;connectable=0;fillColor=none;top=0;left=0;bottom=0;right=0;overflow=hidden;" vertex="1" parent="15">
                    <mxGeometry x="34" width="20" height="21" as="geometry">
                        <mxRectangle width="20" height="21" as="alternateBounds"/>
                    </mxGeometry>
                </mxCell>
                <mxCell id="18" value="" style="shape=partialRectangle;html=1;whiteSpace=wrap;connectable=0;fillColor=none;top=0;left=0;bottom=0;right=0;overflow=hidden;" vertex="1" parent="15">
                    <mxGeometry x="54" width="26" height="21" as="geometry">
                        <mxRectangle width="26" height="21" as="alternateBounds"/>
                    </mxGeometry>
                </mxCell>
                <mxCell id="20" style="edgeStyle=none;html=1;exitX=1;exitY=0.5;exitDx=0;exitDy=0;" edge="1" parent="1" source="7" target="3">
                    <mxGeometry relative="1" as="geometry"/>
                </mxCell>
                <mxCell id="65" style="edgeStyle=none;html=1;exitX=1;exitY=0.75;exitDx=0;exitDy=0;entryX=0;entryY=0.5;entryDx=0;entryDy=0;" edge="1" parent="1" source="26" target="62">
                    <mxGeometry relative="1" as="geometry"/>
                </mxCell>
                <mxCell id="67" style="edgeStyle=none;html=1;exitX=1.029;exitY=0.589;exitDx=0;exitDy=0;exitPerimeter=0;" edge="1" parent="1" source="26" target="64">
                    <mxGeometry relative="1" as="geometry"/>
                </mxCell>
                <mxCell id="68" style="edgeStyle=none;html=1;exitX=0.5;exitY=0;exitDx=0;exitDy=0;entryX=0;entryY=0.5;entryDx=0;entryDy=0;" edge="1" parent="1" source="26" target="63">
                    <mxGeometry relative="1" as="geometry"/>
                </mxCell>
                <mxCell id="98" style="edgeStyle=none;html=1;exitX=1;exitY=1;exitDx=0;exitDy=0;entryX=0;entryY=0.5;entryDx=0;entryDy=0;" edge="1" parent="1" source="26" target="90">
                    <mxGeometry relative="1" as="geometry"/>
                </mxCell>
                <mxCell id="26" value="A&lt;br&gt;P&lt;br&gt;I&lt;br&gt;&lt;br&gt;&lt;br&gt;G&lt;br&gt;A&lt;br&gt;T&lt;br&gt;E&lt;br&gt;W&lt;br&gt;A&lt;br&gt;Y" style="rounded=0;whiteSpace=wrap;html=1;" vertex="1" parent="1">
                    <mxGeometry x="399" y="175" width="31" height="250" as="geometry"/>
                </mxCell>
                <mxCell id="54" value="UserDB&lt;br&gt;(PostGres)" style="shape=cylinder3;whiteSpace=wrap;html=1;boundedLbl=1;backgroundOutline=1;size=15;" vertex="1" parent="1">
                    <mxGeometry x="827" y="-5" width="80" height="80" as="geometry"/>
                </mxCell>
                <mxCell id="55" value="PostDB&lt;br&gt;(PostGres)" style="shape=cylinder3;whiteSpace=wrap;html=1;boundedLbl=1;backgroundOutline=1;size=15;" vertex="1" parent="1">
                    <mxGeometry x="850" y="240" width="80" height="80" as="geometry"/>
                </mxCell>
                <mxCell id="58" style="edgeStyle=none;html=1;entryX=0;entryY=0.5;entryDx=0;entryDy=0;entryPerimeter=0;exitX=0;exitY=0;exitDx=100;exitDy=10;exitPerimeter=0;" edge="1" parent="1" source="74" target="55">
                    <mxGeometry relative="1" as="geometry">
                        <mxPoint x="820" y="330.9230769230769" as="sourcePoint"/>
                        <mxPoint x="884" y="337.5" as="targetPoint"/>
                    </mxGeometry>
                </mxCell>
                <mxCell id="59" style="edgeStyle=none;html=1;exitX=0;exitY=0;exitDx=100;exitDy=22.5;exitPerimeter=0;entryX=0;entryY=0.5;entryDx=0;entryDy=0;entryPerimeter=0;" edge="1" parent="1" source="72" target="54">
                    <mxGeometry relative="1" as="geometry">
                        <mxPoint x="790" y="5" as="sourcePoint"/>
                        <mxPoint x="890" y="5" as="targetPoint"/>
                    </mxGeometry>
                </mxCell>
                <mxCell id="60" style="edgeStyle=none;html=1;exitX=0;exitY=0;exitDx=100;exitDy=35;exitPerimeter=0;entryX=0;entryY=0.5;entryDx=0;entryDy=0;" edge="1" parent="1" source="73" target="89">
                    <mxGeometry relative="1" as="geometry">
                        <mxPoint x="840" y="530" as="sourcePoint"/>
                        <mxPoint x="810" y="502.5" as="targetPoint"/>
                    </mxGeometry>
                </mxCell>
                <mxCell id="71" style="edgeStyle=none;html=1;exitX=1;exitY=0.5;exitDx=0;exitDy=0;entryX=0;entryY=0;entryDx=0;entryDy=25;entryPerimeter=0;" edge="1" parent="1" source="62" target="73">
                    <mxGeometry relative="1" as="geometry">
                        <mxPoint x="700" y="510" as="targetPoint"/>
                    </mxGeometry>
                </mxCell>
                <mxCell id="62" value="LoadBalancer" style="whiteSpace=wrap;html=1;aspect=fixed;" vertex="1" parent="1">
                    <mxGeometry x="520" y="450" width="86" height="86" as="geometry"/>
                </mxCell>
                <mxCell id="69" style="edgeStyle=none;html=1;exitX=1;exitY=0.5;exitDx=0;exitDy=0;entryX=0;entryY=0;entryDx=0;entryDy=25;entryPerimeter=0;" edge="1" parent="1" source="63" target="72">
                    <mxGeometry relative="1" as="geometry">
                        <mxPoint x="650" y="15" as="targetPoint"/>
                    </mxGeometry>
                </mxCell>
                <mxCell id="63" value="LoadBalancer" style="whiteSpace=wrap;html=1;aspect=fixed;" vertex="1" parent="1">
                    <mxGeometry x="510" y="-5" width="86" height="86" as="geometry"/>
                </mxCell>
                <mxCell id="70" style="edgeStyle=none;html=1;exitX=1;exitY=0.5;exitDx=0;exitDy=0;entryX=0;entryY=0;entryDx=0;entryDy=25;entryPerimeter=0;" edge="1" parent="1" source="64" target="74">
                    <mxGeometry relative="1" as="geometry">
                        <mxPoint x="680.2399999999998" y="320.79999999999995" as="targetPoint"/>
                    </mxGeometry>
                </mxCell>
                <mxCell id="80" style="edgeStyle=none;html=1;entryX=0;entryY=0;entryDx=0;entryDy=50.00000000000001;entryPerimeter=0;exitX=1.011;exitY=0.197;exitDx=0;exitDy=0;exitPerimeter=0;" edge="1" parent="1" source="26" target="78">
                    <mxGeometry relative="1" as="geometry">
                        <mxPoint x="430" y="220" as="sourcePoint"/>
                    </mxGeometry>
                </mxCell>
                <mxCell id="64" value="LoadBalancer" style="whiteSpace=wrap;html=1;aspect=fixed;" vertex="1" parent="1">
                    <mxGeometry x="520" y="280" width="86" height="86" as="geometry"/>
                </mxCell>
                <mxCell id="72" value="UserService" style="verticalLabelPosition=bottom;verticalAlign=top;html=1;shape=mxgraph.basic.layered_rect;dx=10;outlineConnect=0;whiteSpace=wrap;" vertex="1" parent="1">
                    <mxGeometry x="660" y="13" width="100" height="60" as="geometry"/>
                </mxCell>
                <mxCell id="73" value="SearchService" style="verticalLabelPosition=bottom;verticalAlign=top;html=1;shape=mxgraph.basic.layered_rect;dx=10;outlineConnect=0;whiteSpace=wrap;" vertex="1" parent="1">
                    <mxGeometry x="660" y="470" width="100" height="60" as="geometry"/>
                </mxCell>
                <mxCell id="103" style="edgeStyle=none;html=1;exitX=0;exitY=0;exitDx=100;exitDy=60;exitPerimeter=0;entryX=0;entryY=0.5;entryDx=0;entryDy=0;entryPerimeter=0;" edge="1" parent="1" source="74" target="102">
                    <mxGeometry relative="1" as="geometry"/>
                </mxCell>
                <mxCell id="74" value="PostService" style="verticalLabelPosition=bottom;verticalAlign=top;html=1;shape=mxgraph.basic.layered_rect;dx=10;outlineConnect=0;whiteSpace=wrap;" vertex="1" parent="1">
                    <mxGeometry x="690" y="298.5" width="100" height="60" as="geometry"/>
                </mxCell>
                <mxCell id="82" style="edgeStyle=none;html=1;exitX=0;exitY=0;exitDx=100;exitDy=35;exitPerimeter=0;entryX=0;entryY=0.5;entryDx=0;entryDy=0;entryPerimeter=0;" edge="1" parent="1" source="78" target="81">
                    <mxGeometry relative="1" as="geometry"/>
                </mxCell>
                <mxCell id="86" style="edgeStyle=none;html=1;exitX=0;exitY=0;exitDx=32.5;exitDy=60;exitPerimeter=0;" edge="1" parent="1" source="78">
                    <mxGeometry relative="1" as="geometry">
                        <mxPoint x="430" y="240" as="targetPoint"/>
                    </mxGeometry>
                </mxCell>
                <mxCell id="78" value="UploadService" style="verticalLabelPosition=bottom;verticalAlign=top;html=1;shape=mxgraph.basic.layered_rect;dx=10;outlineConnect=0;whiteSpace=wrap;" vertex="1" parent="1">
                    <mxGeometry x="550" y="146" width="100" height="60" as="geometry"/>
                </mxCell>
                <mxCell id="81" value="Media/VideoContent&lt;br&gt;(S3 - ObjectStore)" style="shape=cylinder3;whiteSpace=wrap;html=1;boundedLbl=1;backgroundOutline=1;size=15;" vertex="1" parent="1">
                    <mxGeometry x="810" y="143" width="120" height="80" as="geometry"/>
                </mxCell>
                <mxCell id="89" value="Token to Content ID Mapping&lt;br data-darkreader-inline-border=&quot;&quot; style=&quot;border-color: var(--border-color); --darkreader-inline-border: var(--darkreader-border--border-color);&quot;&gt;(ElasticSearch)" style="shape=datastore;whiteSpace=wrap;html=1;" vertex="1" parent="1">
                    <mxGeometry x="819" y="456" width="131" height="100" as="geometry"/>
                </mxCell>
                <mxCell id="97" style="edgeStyle=none;html=1;" edge="1" parent="1" source="90" target="91">
                    <mxGeometry relative="1" as="geometry"/>
                </mxCell>
                <mxCell id="90" value="LoadBalancer" style="whiteSpace=wrap;html=1;aspect=fixed;" vertex="1" parent="1">
                    <mxGeometry x="530" y="607" width="86" height="86" as="geometry"/>
                </mxCell>
                <mxCell id="96" style="edgeStyle=none;html=1;entryX=0;entryY=0.5;entryDx=0;entryDy=0;" edge="1" parent="1" source="91" target="94">
                    <mxGeometry relative="1" as="geometry"/>
                </mxCell>
                <mxCell id="91" value="FeedService" style="verticalLabelPosition=bottom;verticalAlign=top;html=1;shape=mxgraph.basic.layered_rect;dx=10;outlineConnect=0;whiteSpace=wrap;" vertex="1" parent="1">
                    <mxGeometry x="780" y="620" width="100" height="60" as="geometry"/>
                </mxCell>
                <mxCell id="94" value="Redis for Top Posts&lt;br&gt;&lt;br&gt;" style="shape=datastore;whiteSpace=wrap;html=1;fillColor=rgb(255, 255, 255);" vertex="1" parent="1">
                    <mxGeometry x="987" y="600" width="91" height="100" as="geometry"/>
                </mxCell>
                <mxCell id="107" style="edgeStyle=none;html=1;exitX=1;exitY=0.5;exitDx=0;exitDy=0;entryX=0;entryY=0;entryDx=100;entryDy=35;entryPerimeter=0;" edge="1" parent="1" source="99" target="105">
                    <mxGeometry relative="1" as="geometry">
                        <Array as="points">
                            <mxPoint x="1280" y="383"/>
                            <mxPoint x="1280" y="505"/>
                        </Array>
                    </mxGeometry>
                </mxCell>
                <mxCell id="99" value="Event Emitted&amp;nbsp;" style="shape=step;perimeter=stepPerimeter;whiteSpace=wrap;html=1;fixedSize=1;" vertex="1" parent="1">
                    <mxGeometry x="980" y="343" width="180" height="80" as="geometry"/>
                </mxCell>
                <mxCell id="104" style="edgeStyle=none;html=1;exitX=1;exitY=0.5;exitDx=0;exitDy=0;exitPerimeter=0;entryX=0;entryY=0.75;entryDx=0;entryDy=0;" edge="1" parent="1" source="102" target="99">
                    <mxGeometry relative="1" as="geometry"/>
                </mxCell>
                <mxCell id="102" value="EventDB&lt;br&gt;(PostGres)" style="shape=cylinder3;whiteSpace=wrap;html=1;boundedLbl=1;backgroundOutline=1;size=15;" vertex="1" parent="1">
                    <mxGeometry x="847.25" y="366" width="85.5" height="70" as="geometry"/>
                </mxCell>
                <mxCell id="106" style="edgeStyle=none;html=1;exitX=0;exitY=0;exitDx=55;exitDy=60;exitPerimeter=0;entryX=0.85;entryY=0.05;entryDx=0;entryDy=0;entryPerimeter=0;" edge="1" parent="1" source="105" target="94">
                    <mxGeometry relative="1" as="geometry"/>
                </mxCell>
                <mxCell id="105" value="ActivityService" style="verticalLabelPosition=bottom;verticalAlign=top;html=1;shape=mxgraph.basic.layered_rect;dx=10;outlineConnect=0;whiteSpace=wrap;" vertex="1" parent="1">
                    <mxGeometry x="1010" y="470" width="100" height="60" as="geometry"/>
                </mxCell>
            </root>
        </mxGraphModel>
    </diagram>
</mxfile>